<svg xmlns="http://www.w3.org/2000/svg" aria-hidden="true" style="position:absolute;width:0;height:0;overflow:hidden"><defs>
<symbol id="icon-linkedin" viewBox="0 0 32 32"><path d="M31.992 32v-.001H32V20.263c0-5.741-1.236-10.164-7.948-10.164-3.227 0-5.392 1.771-6.276 3.449h-.093v-2.913h-6.364v21.364h6.627V21.42c0-2.785.528-5.479 3.977-5.479 3.399 0 3.449 3.179 3.449 5.657v10.401h6.62zM.528 10.636h6.635V32H.528V10.636zM3.843 0C1.722 0 0 1.721 0 3.843s1.721 3.879 3.843 3.879c2.121 0 3.843-1.757 3.843-3.879A3.846 3.846 0 0 0 3.843 0z"/></symbol>
<symbol id="icon-facebook" viewBox="0 0 32 32"><path d="M21.329 5.313h2.921V.225C23.746.156 22.013 0 19.994 0c-4.212 0-7.097 2.649-7.097 7.519V12H8.249v5.688h4.648V32h5.699V17.689h4.46l.708-5.688h-5.169V8.082c.001-1.644.444-2.769 2.735-2.769z"/></symbol>
<symbol id="icon-twitter" viewBox="0 0 32 32"><path d="M32 6.078c-1.19.522-2.458.868-3.78 1.036a6.523 6.523 0 0 0 2.886-3.626 13.11 13.11 0 0 1-4.16 1.588A6.574 6.574 0 0 0 22.154 3c-3.632 0-6.556 2.948-6.556 6.562 0 .52.044 1.02.152 1.496-5.454-.266-10.28-2.88-13.522-6.862a6.605 6.605 0 0 0-.898 3.316 6.57 6.57 0 0 0 2.914 5.452 6.479 6.479 0 0 1-2.964-.808v.072c0 3.188 2.274 5.836 5.256 6.446a6.548 6.548 0 0 1-1.72.216 5.8 5.8 0 0 1-1.242-.112c.85 2.598 3.262 4.508 6.13 4.57a13.182 13.182 0 0 1-8.134 2.798c-.538 0-1.054-.024-1.57-.09A18.469 18.469 0 0 0 10.064 29c12.072 0 18.672-10 18.672-18.668 0-.29-.01-.57-.024-.848A13.087 13.087 0 0 0 32 6.078z"/></symbol>
<symbol id="icon-instagram" viewBox="0 0 32 32"><path d="M31.969 9.408c-.075-1.7-.35-2.869-.744-3.882a7.806 7.806 0 0 0-1.851-2.838A7.867 7.867 0 0 0 26.542.844C25.523.45 24.36.175 22.66.1 20.947.019 20.403 0 16.059 0s-4.888.019-6.595.094c-1.7.075-2.869.35-3.882.744a7.803 7.803 0 0 0-2.838 1.85A7.867 7.867 0 0 0 .9 5.52C.506 6.539.231 7.702.156 9.402c-.081 1.713-.1 2.257-.1 6.601s.019 4.888.094 6.595c.075 1.7.35 2.869.744 3.882a7.895 7.895 0 0 0 1.85 2.838 7.867 7.867 0 0 0 2.832 1.844c1.019.394 2.182.669 3.882.744 1.706.075 2.25.094 6.595.094s4.888-.019 6.595-.094c1.7-.075 2.869-.35 3.882-.744a8.184 8.184 0 0 0 4.682-4.682c.394-1.019.669-2.182.744-3.882.075-1.707.094-2.251.094-6.595s-.006-4.888-.081-6.595zm-2.882 13.065c-.069 1.563-.331 2.407-.55 2.969a5.31 5.31 0 0 1-3.038 3.038c-.563.219-1.413.481-2.969.55-1.688.075-2.194.094-6.464.094s-4.782-.019-6.464-.094c-1.563-.069-2.407-.331-2.969-.55a4.926 4.926 0 0 1-1.838-1.194 4.974 4.974 0 0 1-1.194-1.838c-.219-.563-.481-1.413-.55-2.969-.075-1.688-.094-2.194-.094-6.464s.019-4.782.094-6.464c.069-1.563.331-2.407.55-2.969a4.868 4.868 0 0 1 1.2-1.838A4.974 4.974 0 0 1 6.639 3.55c.563-.219 1.413-.481 2.969-.55 1.688-.075 2.194-.094 6.464-.094 4.276 0 4.782.019 6.464.094 1.563.069 2.407.331 2.969.55a4.914 4.914 0 0 1 1.838 1.194 4.974 4.974 0 0 1 1.194 1.838c.219.563.481 1.413.55 2.969.075 1.688.094 2.194.094 6.464s-.019 4.77-.094 6.458z"/><path d="M16.059 7.783c-4.538 0-8.22 3.682-8.22 8.22s3.682 8.22 8.22 8.22c4.539 0 8.22-3.682 8.22-8.22s-3.682-8.22-8.22-8.22zm0 13.552a5.333 5.333 0 0 1 0-10.664 5.333 5.333 0 0 1 0 10.664zM26.524 7.458a1.919 1.919 0 1 1-3.838 0 1.919 1.919 0 0 1 3.838 0z"/></symbol>
<symbol id="mail" viewBox="0 0 32 32"><path stroke-linecap="round" stroke-linejoin="round" stroke-width="1.333" d="M6.4 6.667h19.2C26.92 6.667 28 7.716 28 9v14c0 1.283-1.08 2.333-2.4 2.333H6.4C5.08 25.333 4 24.282 4 23V9c0-1.284 1.08-2.333 2.4-2.333z"/><path stroke-linecap="round" stroke-linejoin="round" stroke-width="1.333" d="m26.667 9.333-10.667 8-10.667-8"/></symbol>
<symbol id="geo" viewBox="0 0 32 32"><path stroke-linecap="round" stroke-linejoin="round" stroke-width="1.333" d="M26.667 13.819C26.667 21.454 16 28 16 28S5.333 21.453 5.333 13.819C5.333 8.396 10.109 4 16 4s10.667 4.396 10.667 9.819z"/><path stroke-linecap="round" stroke-linejoin="round" stroke-width="1.333" d="M16 18.667a4 4 0 0 0 0-8 4 4 0 0 0 0 8z"/></symbol>
<symbol id="phone" viewBox="0 0 32 32"><path stroke-linecap="round" stroke-linejoin="round" stroke-width="1.333" d="M26.667 21.337v3.226a2.147 2.147 0 0 1-2.347 2.138l.008.001c-3.481-.388-6.626-1.563-9.338-3.343l.081.05a21.113 21.113 0 0 1-6.386-6.353l-.05-.083A20.982 20.982 0 0 1 5.35 7.768l-.008-.095a2.145 2.145 0 0 1 2.136-2.338h3.239c1.079 0 1.972.797 2.123 1.834l.001.012c.136 1.029.387 2.04.751 3.013a2.144 2.144 0 0 1-.483 2.264l-1.363 1.361c1.555 2.7 3.736 4.881 6.353 6.392l.083.044 1.363-1.361a2.14 2.14 0 0 1 2.278-.477l-.015-.005c.973.363 1.984.613 3.013.751a2.148 2.148 0 0 1 1.847 2.125l-.001.056v-.003z"/></symbol>
<symbol id="logo" viewBox="0 0 39 32"><path d="M22.070 9.734l-0.738-0.577c-0.095-0.080-0.22-0.129-0.355-0.129-0.176 0-0.332 0.082-0.434 0.209l-0.001 0.001-10.22 12.013 0.158 0.179 2.531-2.389c-0.086-0.036-0.155-0.1-0.197-0.179l-0.001-0.002c-0.029-0.054-0.046-0.119-0.046-0.188 0-0.125 0.056-0.236 0.145-0.311l0.001-0c0.066-0.055 0.151-0.088 0.244-0.088 0.002 0 0.004 0 0.006 0h-0c0.086 0 0.165 0.029 0.229 0.078l-0.001-0.001c0.066 0.050 0.114 0.12 0.138 0.2l3.337-3.167c0.049-0.040 0.112-0.065 0.181-0.065s0.132 0.024 0.181 0.065l-0-0 0.169 0.127c0.045 0.034 0.102 0.054 0.164 0.054 0.085 0 0.162-0.039 0.213-0.1l0-0 4.363-5.008c0.080-0.086 0.13-0.201 0.13-0.328 0-0.017-0.001-0.034-0.003-0.051l0 0.002c-0.014-0.142-0.087-0.264-0.194-0.344l-0.001-0.001z"></path><path d="M26.873 13.115c-2.107 1.552-4.573 2.77-7.237 3.511l-0.159 0.038c-2.369 0.644-5.122 1.082-7.954 1.219l-0.090 0.003c0.055 0.41 0.153 0.813 0.293 1.201 1.534 1.419 13.078-1.004 15.333-3.808 0.479-0.583-0.186-2.164-0.186-2.164zM13.163 19.041c-0 0-0 0-0 0-0.079 0-0.153-0.025-0.214-0.067l0.001 0.001c-0.063-0.044-0.111-0.104-0.14-0.174l-0.001-0.003c-0.018-0.044-0.029-0.095-0.029-0.149 0-0.108 0.043-0.206 0.112-0.278l-0 0c0.069-0.070 0.165-0.114 0.272-0.114 0.052 0 0.102 0.011 0.148 0.030l-0.002-0.001c0.070 0.030 0.13 0.080 0.173 0.145 0.040 0.061 0.065 0.137 0.065 0.218 0 0 0 0 0 0.001v-0c0 0.001 0 0.003 0 0.004 0 0.107-0.042 0.204-0.111 0.275l0-0c-0.068 0.070-0.164 0.113-0.269 0.113-0.001 0-0.002 0-0.004-0h0zM2.255 12.284l0.090-0.398 1.466 0.341c0.121 0.229 0.195 0.48 0.22 0.739 0.028 0.274 0.011 0.551-0.051 0.819-0.077 0.388-0.247 0.728-0.486 1.007l0.002-0.003c-0.233 0.27-0.533 0.469-0.869 0.577-0.181 0.059-0.389 0.093-0.605 0.093-0.163 0-0.322-0.019-0.473-0.056l0.014 0.003c-0.369-0.084-0.689-0.262-0.942-0.508l0 0c-0.253-0.24-0.44-0.547-0.532-0.892l-0.003-0.013c-0.048-0.173-0.076-0.372-0.076-0.577s0.028-0.404 0.080-0.593l-0.004 0.016c0.061-0.282 0.17-0.552 0.321-0.796 0.144-0.222 0.337-0.406 0.564-0.537l0.203 0.317c-0.194 0.122-0.361 0.286-0.489 0.478s-0.215 0.411-0.255 0.641c-0.031 0.126-0.048 0.271-0.048 0.419 0 0.173 0.024 0.341 0.069 0.5l-0.003-0.013c0.075 0.28 0.226 0.534 0.434 0.733 0.213 0.211 0.481 0.358 0.771 0.421 0.129 0.039 0.278 0.061 0.431 0.061s0.302-0.022 0.442-0.064l-0.011 0.003c0.27-0.091 0.513-0.252 0.705-0.467 0.191-0.224 0.329-0.499 0.392-0.802l0.002-0.012c0.093-0.365 0.070-0.751-0.067-1.102l-1.291-0.335zM5.446 8.655l-1.314 1.794 0.564 1.033-0.259 0.358-2.086-3.895 0.242-0.341 4.245 0.935-0.265 0.358-1.127-0.242zM5.074 8.562l-2.255-0.519 1.127 2.071 1.127-1.552zM5.074 4.933l0.338-0.259 2.147 2.943 1.77-1.356 0.214 0.294-2.103 1.61-2.367-3.231zM8.625 2.527l0.377-0.173 1.489 3.335 2.012-0.935 0.146 0.335-2.39 1.114-1.634-3.675zM16.055 3.854l0.085 0.363-2.717 0.652-0.902-3.935 2.638-0.629 0.079 0.357-2.255 0.537 0.322 1.396 1.984-0.479 0.085 0.358-1.99 0.473 0.338 1.459 2.334-0.554zM19.927 3.999l-0.941-1.27c-0.105 0.006-0.211 0.006-0.316 0l-1.060 0.034 0.040 1.281h-0.417l-0.13-4.039 1.5-0.006c0.049-0.005 0.105-0.008 0.163-0.008 0.388 0 0.747 0.126 1.037 0.34l-0.005-0.003c0.146 0.12 0.264 0.273 0.344 0.447s0.121 0.364 0.118 0.557c0.017 0.285-0.057 0.568-0.209 0.807-0.16 0.226-0.383 0.397-0.644 0.487l-0.009 0.003 0.986 1.35-0.457 0.017zM19.533 2.101c0.179-0.171 0.291-0.412 0.291-0.678 0-0.027-0.001-0.054-0.003-0.081l0 0.003c0-0.006 0-0.013 0-0.020 0-0.141-0.031-0.275-0.086-0.395l0.002 0.006c-0.057-0.128-0.143-0.241-0.249-0.33-0.215-0.151-0.482-0.242-0.77-0.242-0.041 0-0.081 0.002-0.121 0.005l0.005-0-1.071 0.041 0.068 2.019 1.049-0.034c0.014 0.001 0.031 0.001 0.048 0.001 0.318 0 0.61-0.111 0.839-0.297l-0.002 0.002zM22.91 2.926l-0.203 1.379-0.411-0.063 0.208-1.356-1.166-2.885 0.44 0.069 0.998 2.458 1.691-2.037 0.394 0.087-1.95 2.349zM28.485 2.683l0.49 0.652-0.214 0.173-0.491-0.669-0.31 0.756-0.237-0.104 0.316-0.756-0.811 0.11v-0.277l0.8-0.092-0.496-0.652 0.22-0.173 0.434 0.657 0.304-0.761 0.242 0.104-0.287 0.773 0.811-0.115v0.283l-0.771 0.092zM30.367 7.334c-0.128-0.199-0.214-0.436-0.242-0.691l-0.001-0.007 0.333-0.15c0.025 0.229 0.098 0.449 0.214 0.646 0.126 0.221 0.29 0.417 0.485 0.577 0.201 0.197 0.457 0.324 0.733 0.363 0.017 0.002 0.038 0.003 0.058 0.003 0.191 0 0.36-0.089 0.471-0.227l0.001-0.001c0.082-0.092 0.132-0.213 0.132-0.347 0-0.016-0.001-0.032-0.002-0.048l0 0.002c-0.020-0.149-0.068-0.284-0.138-0.403l0.003 0.005c-0.106-0.177-0.221-0.349-0.344-0.514-0.138-0.183-0.273-0.391-0.392-0.607l-0.014-0.027c-0.088-0.157-0.142-0.343-0.146-0.542l-0-0.001c-0.001-0.214 0.078-0.419 0.219-0.577 0.123-0.152 0.286-0.266 0.469-0.329 0.094-0.029 0.201-0.045 0.313-0.045s0.219 0.017 0.32 0.047l-0.008-0.002c0.263 0.088 0.507 0.23 0.716 0.415 0.174 0.148 0.327 0.319 0.457 0.508 0.119 0.175 0.209 0.37 0.265 0.577l-0.322 0.173c-0.061-0.206-0.145-0.386-0.252-0.55l0.005 0.008c-0.11-0.151-0.234-0.282-0.374-0.395l-0.004-0.003c-0.19-0.189-0.441-0.317-0.721-0.351l-0.006-0.001c-0.015-0.001-0.033-0.002-0.051-0.002-0.088 0-0.172 0.019-0.247 0.053l0.004-0.002c-0.095 0.043-0.174 0.107-0.234 0.185l-0.001 0.001c-0.082 0.089-0.133 0.208-0.133 0.339 0 0.019 0.001 0.037 0.003 0.056l-0-0.002c0.013 0.146 0.059 0.286 0.135 0.41 0.079 0.133 0.192 0.306 0.344 0.514 0.151 0.197 0.287 0.405 0.406 0.623 0.094 0.166 0.146 0.351 0.153 0.543 0 0.214-0.078 0.419-0.22 0.577-0.123 0.154-0.288 0.269-0.474 0.329-0.204 0.063-0.422 0.063-0.626 0-0.279-0.094-0.519-0.236-0.723-0.417l0.002 0.002c-0.225-0.201-0.413-0.438-0.557-0.702l-0.007-0.014zM36.038 8.176l-0.794-1.154 0.293-0.213 1.833 2.677-0.293 0.214-0.795-1.154-2.943 2.106-0.237-0.352 2.937-2.123zM34.776 12.919c0.101-0.349 0.296-0.661 0.563-0.9 0.251-0.231 0.564-0.399 0.911-0.476l0.013-0.002c0.137-0.034 0.295-0.053 0.457-0.053 0.215 0 0.422 0.034 0.617 0.097l-0.014-0.004c0.331 0.113 0.629 0.311 0.863 0.577 0.242 0.286 0.407 0.632 0.479 1.004 0.093 0.365 0.093 0.749 0 1.114-0.108 0.358-0.304 0.662-0.563 0.899l-0.002 0.001c-0.258 0.238-0.579 0.411-0.935 0.493l-0.014 0.003c-0.134 0.031-0.289 0.050-0.447 0.050-0.22 0-0.432-0.035-0.631-0.099l0.014 0.004c-0.346-0.113-0.639-0.313-0.861-0.574l-0.002-0.003c-0.234-0.275-0.402-0.613-0.477-0.984l-0.002-0.014c-0.037-0.153-0.058-0.329-0.058-0.51 0-0.221 0.032-0.435 0.091-0.637l-0.004 0.016zM35.514 14.753c0.189 0.22 0.432 0.382 0.705 0.468 0.146 0.045 0.313 0.071 0.486 0.071 0.134 0 0.264-0.015 0.389-0.044l-0.012 0.002c0.286-0.065 0.551-0.201 0.771-0.398 0.208-0.196 0.362-0.445 0.446-0.722 0.078-0.291 0.086-0.599 0.022-0.894-0.068-0.309-0.203-0.579-0.391-0.805l0.002 0.003c-0.191-0.215-0.437-0.377-0.716-0.464l-0.011-0.003c-0.13-0.037-0.28-0.058-0.434-0.058s-0.304 0.021-0.446 0.061l0.012-0.003c-0.287 0.057-0.553 0.194-0.766 0.398-0.206 0.193-0.36 0.439-0.443 0.715l-0.003 0.011c-0.036 0.134-0.057 0.288-0.057 0.447s0.021 0.313 0.060 0.46l-0.003-0.012c0.062 0.286 0.196 0.551 0.389 0.767zM34.347 19.618l1.46-0.577c0-0.103 0.034-0.207 0.062-0.317l0.276-1.045-1.195-0.317 0.107-0.41 3.811 1.045-0.383 1.459c-0.090 0.437-0.324 0.808-0.65 1.070l-0.004 0.003c-0.193 0.139-0.433 0.223-0.694 0.223-0.135 0-0.264-0.022-0.385-0.064l0.008 0.003c-0.282-0.065-0.521-0.22-0.69-0.433l-0.002-0.003c-0.169-0.213-0.272-0.485-0.273-0.781v-0l-1.556 0.577 0.107-0.433zM36.236 19.779c0.066 0.122 0.155 0.23 0.263 0.317 0.17 0.137 0.389 0.22 0.628 0.22 0.050 0 0.099-0.004 0.148-0.011l-0.005 0.001c0.144-0.022 0.273-0.071 0.386-0.142l-0.004 0.002c0.249-0.205 0.419-0.493 0.479-0.813l0.271-1.039-1.911-0.525-0.271 1.039c-0.047 0.135-0.074 0.29-0.074 0.452 0 0.18 0.033 0.352 0.094 0.51l-0.003-0.010zM32.323 23.334l-0.287-0.225 1.691-2.279 3.146 2.441-1.635 2.21-0.288-0.225 1.381-1.863-1.127-0.871-1.234 1.667-0.282-0.219 1.263-1.667-1.167-0.906-1.46 1.939zM31.005 27.932l-0.806 0.046v-0.277l0.806-0.006-0.434-0.687 0.22-0.145 0.429 0.693 0.349-0.773 0.243 0.133-0.383 0.727 0.806-0.046v0.283h-0.817l0.434 0.686-0.22 0.145-0.429-0.693-0.371 0.75-0.237-0.139 0.411-0.698zM23.676 27.471l0.682 0.386c0.114-0.225 0.274-0.422 0.469-0.579 0.185-0.151 0.405-0.265 0.647-0.329l0.012-0.003c0.224-0.072 0.459-0.097 0.693-0.075 0.203 0.016 0.398 0.088 0.564 0.208 0.15 0.116 0.261 0.278 0.315 0.462 0.069 0.227 0.056 0.473-0.034 0.692-0.148 0.31-0.337 0.575-0.564 0.802l0-0c0.186 0.102 0.358 0.229 0.513 0.375 0.107 0.113 0.186 0.249 0.231 0.398 0.014 0.056 0.023 0.121 0.023 0.188 0 0.185-0.064 0.355-0.171 0.489l0.001-0.002c-0.148 0.217-0.367 0.376-0.623 0.443l-0.008 0.002c-0.104 0.042-0.224 0.066-0.35 0.066s-0.246-0.024-0.356-0.068l0.006 0.002c-0.103-0.046-0.19-0.113-0.258-0.195l-0.001-0.001c-0.068-0.082-0.119-0.181-0.146-0.289l-0.001-0.005c-0.023-0.071-0.036-0.153-0.036-0.238 0-0.123 0.028-0.24 0.078-0.344l-0.002 0.005c0.129-0.263 0.299-0.502 0.502-0.71l-1.359-0.773c-0.051 0.271-0.063 0.55-0.034 0.825h-0.343c-0.004-0.058-0.007-0.125-0.007-0.193 0-0.289 0.044-0.568 0.124-0.831l-0.005 0.020-0.71-0.404 0.146-0.323zM24.657 28.048l1.494 0.848c0.196-0.191 0.358-0.416 0.479-0.664 0.029-0.077 0.046-0.166 0.046-0.259s-0.017-0.182-0.048-0.265l0.002 0.005c-0.027-0.104-0.077-0.194-0.144-0.268l0 0c-0.067-0.074-0.151-0.131-0.247-0.164l-0.004-0.001c-0.108-0.038-0.232-0.061-0.361-0.061s-0.253 0.022-0.369 0.063l0.008-0.002c-0.201 0.056-0.376 0.151-0.522 0.277l0.002-0.002c-0.152 0.13-0.274 0.291-0.359 0.475l0.023 0.017zM26.777 30.355c0.044-0.076 0.070-0.167 0.070-0.264 0-0.058-0.009-0.115-0.027-0.167l0.001 0.004c-0.034-0.114-0.097-0.217-0.181-0.3-0.136-0.118-0.29-0.224-0.454-0.311l-0.013-0.006c-0.171 0.173-0.321 0.366-0.446 0.577-0.042 0.079-0.066 0.172-0.066 0.271 0 0.055 0.008 0.109 0.022 0.16l-0.001-0.004c0.037 0.134 0.127 0.243 0.245 0.305l0.003 0.001c0.144 0.055 0.302 0.055 0.446 0 0.153-0.042 0.287-0.138 0.377-0.271l0.023 0.006zM16.805 31.919l0.079-4.039h0.4l-0.062 3.231 1.601-2.689h0.197l1.499 2.735 0.057-3.214h0.4l-0.073 4.039h-0.344l-1.657-3.018-1.754 2.96-0.343-0.006zM14.843 27.695c0.257 0.251 0.442 0.571 0.533 0.924 0.040 0.15 0.063 0.322 0.063 0.5 0 0.204-0.030 0.401-0.087 0.587l0.004-0.014c-0.097 0.37-0.284 0.688-0.536 0.941l0-0c-0.242 0.244-0.55 0.422-0.895 0.505l-0.013 0.003c-0.145 0.035-0.311 0.055-0.482 0.055-0.218 0-0.429-0.033-0.627-0.093l0.015 0.004c-0.371-0.095-0.691-0.278-0.947-0.526l0.001 0.001c-0.248-0.243-0.431-0.552-0.522-0.898l-0.003-0.014c-0.038-0.153-0.060-0.329-0.060-0.51 0-0.207 0.029-0.408 0.083-0.598l-0.004 0.015c0.099-0.357 0.287-0.68 0.545-0.939 0.246-0.251 0.554-0.431 0.891-0.519 0.144-0.035 0.309-0.055 0.479-0.055 0.217 0 0.426 0.033 0.624 0.093l-0.015-0.004c0.358 0.093 0.686 0.28 0.953 0.543zM12.921 27.494c-0.288 0.070-0.535 0.216-0.727 0.415l-0 0c-0.207 0.211-0.355 0.477-0.429 0.767-0.037 0.132-0.059 0.284-0.059 0.441s0.022 0.309 0.062 0.453l-0.003-0.012c0.067 0.281 0.209 0.537 0.411 0.738 0.213 0.213 0.474 0.366 0.761 0.445 0.287 0.074 0.587 0.074 0.874 0 0.288-0.075 0.536-0.219 0.733-0.415l-0 0c0.206-0.213 0.354-0.478 0.429-0.767 0.038-0.133 0.059-0.286 0.059-0.444s-0.022-0.311-0.062-0.456l0.003 0.012c-0.076-0.29-0.221-0.54-0.417-0.739l0 0c-0.206-0.206-0.465-0.359-0.755-0.436l-0.012-0.003c-0.13-0.038-0.28-0.060-0.434-0.060s-0.304 0.022-0.446 0.063l0.011-0.003zM8.653 24.811l0.152 1.586c0.097 0.042 0.191 0.091 0.282 0.145l0.919 0.542 0.62-1.119 0.366 0.214-1.973 3.479-1.286-0.755c-0.382-0.201-0.677-0.522-0.841-0.911l-0.004-0.012c-0.043-0.124-0.069-0.267-0.069-0.416 0-0.252 0.072-0.487 0.196-0.686l-0.003 0.005c0.131-0.253 0.339-0.455 0.592-0.577 0.257-0.109 0.541-0.131 0.811-0.063l-0.163-1.697 0.4 0.266zM8.010 26.634c-0.14 0.037-0.262 0.099-0.368 0.181l0.002-0.002c-0.109 0.085-0.2 0.19-0.267 0.311-0.085 0.149-0.135 0.327-0.135 0.516 0 0.104 0.015 0.204 0.043 0.299l-0.002-0.007c0.131 0.299 0.361 0.541 0.648 0.687l0.907 0.537 0.987-1.731-0.907-0.536c-0.229-0.178-0.52-0.285-0.836-0.285-0.025 0-0.050 0.001-0.075 0.002l0.003-0v0.029zM5.316 22.105l0.254-0.26 1.945 2.049-2.818 2.816-1.877-1.985 0.259-0.259 1.595 1.679 0.964-0.998-1.397-1.488 0.27-0.265 1.426 1.5 1.049-1.045-1.669-1.743zM1.127 19.837l0.135-0.797 0.265 0.041-0.152 0.819 0.75-0.283 0.090 0.254-0.761 0.266 0.626 0.542-0.18 0.207-0.603-0.577-0.141 0.819-0.27-0.051 0.158-0.819-0.755 0.277-0.085-0.225 0.755-0.271-0.626-0.537 0.186-0.207 0.609 0.542z"></path></symbol>
<symbol id="icon-menu" viewBox="0 0 32 32"><path  d="M6.4 11.734v-2.134h19.2v2.134h-19.2zM6.4 17.066h19.2v-2.133h-19.2v2.133zM6.4 22.4h19.2v-2.134h-19.2v2.134z"></path></symbol>

<symbol id="icon-close" viewBox="0 0 32 32"><path d="M31.439 3.166l-3.166-3.166-12.554 12.552-12.552-12.552-3.166 3.166 12.552 12.552-12.552 12.554 3.166 3.166 12.552-12.554 12.554 12.554 3.166-3.166-12.554-12.554 12.554-12.552z"></path></symbol>
</defs></svg>